<svg id="visual" viewBox="0 0 900 600" width="900" height="600" xmlns="http://www.w3.org/2000/svg" xmlns:xlink="http://www.w3.org/1999/xlink" version="1.1"><rect x="0" y="0" width="900" height="600" fill="#001220"></rect><defs><linearGradient id="grad1_0" x1="33.3%" y1="0%" x2="100%" y2="100%"><stop offset="20%" stop-color="#001220" stop-opacity="1"></stop><stop offset="80%" stop-color="#001220" stop-opacity="1"></stop></linearGradient></defs><defs><linearGradient id="grad2_0" x1="0%" y1="0%" x2="66.7%" y2="100%"><stop offset="20%" stop-color="#001220" stop-opacity="1"></stop><stop offset="80%" stop-color="#001220" stop-opacity="1"></stop></linearGradient></defs><g transform="translate(900, 0)"><path d="M0 135.2C-17.8 133.4 -35.5 131.6 -51.7 124.9C-67.9 118.3 -82.6 106.8 -93.3 93.3C-104.1 79.9 -111 64.5 -117.3 48.6C-123.7 32.7 -129.4 16.4 -135.2 0L0 0Z" fill="#4FACF7"></path></g><g transform="translate(0, 600)"><path d="M0 -135.2C18.5 -134.1 37 -133 51.7 -124.9C66.5 -116.9 77.6 -101.8 88.4 -88.4C99.2 -74.9 109.6 -63.1 117.3 -48.6C125.1 -34.1 130.1 -17.1 135.2 0L0 0Z" fill="#4FACF7"></path></g></svg>