<svg id="visual" viewBox="0 0 900 600" width="900" height="600" xmlns="http://www.w3.org/2000/svg" xmlns:xlink="http://www.w3.org/1999/xlink" version="1.1"><rect x="0" y="0" width="900" height="600" fill="#001220"></rect><path d="M0 376L21.5 387.3C43 398.7 86 421.3 128.8 417.3C171.7 413.3 214.3 382.7 257.2 372.8C300 363 343 374 385.8 385.2C428.7 396.3 471.3 407.7 514.2 408.2C557 408.7 600 398.3 642.8 402C685.7 405.7 728.3 423.3 771.2 423.2C814 423 857 405 878.5 396L900 387L900 601L878.5 601C857 601 814 601 771.2 601C728.3 601 685.7 601 642.8 601C600 601 557 601 514.2 601C471.3 601 428.7 601 385.8 601C343 601 300 601 257.2 601C214.3 601 171.7 601 128.8 601C86 601 43 601 21.5 601L0 601Z" fill="#4facf7"></path><path d="M0 478L21.5 465.2C43 452.3 86 426.7 128.8 424C171.7 421.3 214.3 441.7 257.2 449C300 456.3 343 450.7 385.8 439.3C428.7 428 471.3 411 514.2 409C557 407 600 420 642.8 425C685.7 430 728.3 427 771.2 432.8C814 438.7 857 453.3 878.5 460.7L900 468L900 601L878.5 601C857 601 814 601 771.2 601C728.3 601 685.7 601 642.8 601C600 601 557 601 514.2 601C471.3 601 428.7 601 385.8 601C343 601 300 601 257.2 601C214.3 601 171.7 601 128.8 601C86 601 43 601 21.5 601L0 601Z" fill="#7d91ea"></path><path d="M0 468L21.5 464.7C43 461.3 86 454.7 128.8 458C171.7 461.3 214.3 474.7 257.2 473.3C300 472 343 456 385.8 455.8C428.7 455.7 471.3 471.3 514.2 471.5C557 471.7 600 456.3 642.8 456.5C685.7 456.7 728.3 472.3 771.2 481.8C814 491.3 857 494.7 878.5 496.3L900 498L900 601L878.5 601C857 601 814 601 771.2 601C728.3 601 685.7 601 642.8 601C600 601 557 601 514.2 601C471.3 601 428.7 601 385.8 601C343 601 300 601 257.2 601C214.3 601 171.7 601 128.8 601C86 601 43 601 21.5 601L0 601Z" fill="#a571cd"></path><path d="M0 503L21.5 506.8C43 510.7 86 518.3 128.8 514.8C171.7 511.3 214.3 496.7 257.2 489.3C300 482 343 482 385.8 486C428.7 490 471.3 498 514.2 502.3C557 506.7 600 507.3 642.8 508.5C685.7 509.7 728.3 511.3 771.2 507.7C814 504 857 495 878.5 490.5L900 486L900 601L878.5 601C857 601 814 601 771.2 601C728.3 601 685.7 601 642.8 601C600 601 557 601 514.2 601C471.3 601 428.7 601 385.8 601C343 601 300 601 257.2 601C214.3 601 171.7 601 128.8 601C86 601 43 601 21.5 601L0 601Z" fill="#bf4ca0"></path><path d="M0 526L21.5 528.7C43 531.3 86 536.7 128.8 539.7C171.7 542.7 214.3 543.3 257.2 547C300 550.7 343 557.3 385.8 558.3C428.7 559.3 471.3 554.7 514.2 551.7C557 548.7 600 547.3 642.8 546.3C685.7 545.3 728.3 544.7 771.2 545.2C814 545.7 857 547.3 878.5 548.2L900 549L900 601L878.5 601C857 601 814 601 771.2 601C728.3 601 685.7 601 642.8 601C600 601 557 601 514.2 601C471.3 601 428.7 601 385.8 601C343 601 300 601 257.2 601C214.3 601 171.7 601 128.8 601C86 601 43 601 21.5 601L0 601Z" fill="#c62368"></path></svg>