<svg id="visual" viewBox="0 0 900 600" width="900" height="600" xmlns="http://www.w3.org/2000/svg" xmlns:xlink="http://www.w3.org/1999/xlink" version="1.1"><rect x="0" y="0" width="900" height="600" fill="#001220"></rect><path d="M0 356L21.5 361C43 366 86 376 128.8 387.5C171.7 399 214.3 412 257.2 417.7C300 423.3 343 421.7 385.8 409.7C428.7 397.7 471.3 375.3 514.2 377.2C557 379 600 405 642.8 408C685.7 411 728.3 391 771.2 381.5C814 372 857 373 878.5 373.5L900 374L900 601L878.5 601C857 601 814 601 771.2 601C728.3 601 685.7 601 642.8 601C600 601 557 601 514.2 601C471.3 601 428.7 601 385.8 601C343 601 300 601 257.2 601C214.3 601 171.7 601 128.8 601C86 601 43 601 21.5 601L0 601Z" fill="#4facf7"></path><path d="M0 399L21.5 398C43 397 86 395 128.8 405.8C171.7 416.7 214.3 440.3 257.2 442C300 443.7 343 423.3 385.8 419.8C428.7 416.3 471.3 429.7 514.2 430.5C557 431.3 600 419.7 642.8 417.7C685.7 415.7 728.3 423.3 771.2 421.5C814 419.7 857 408.3 878.5 402.7L900 397L900 601L878.5 601C857 601 814 601 771.2 601C728.3 601 685.7 601 642.8 601C600 601 557 601 514.2 601C471.3 601 428.7 601 385.8 601C343 601 300 601 257.2 601C214.3 601 171.7 601 128.8 601C86 601 43 601 21.5 601L0 601Z" fill="#2b9dfc"></path><path d="M0 483L21.5 484C43 485 86 487 128.8 484C171.7 481 214.3 473 257.2 465.2C300 457.3 343 449.7 385.8 451.7C428.7 453.7 471.3 465.3 514.2 476.5C557 487.7 600 498.3 642.8 501.3C685.7 504.3 728.3 499.7 771.2 490.3C814 481 857 467 878.5 460L900 453L900 601L878.5 601C857 601 814 601 771.2 601C728.3 601 685.7 601 642.8 601C600 601 557 601 514.2 601C471.3 601 428.7 601 385.8 601C343 601 300 601 257.2 601C214.3 601 171.7 601 128.8 601C86 601 43 601 21.5 601L0 601Z" fill="#008cff"></path><path d="M0 536L21.5 528.2C43 520.3 86 504.7 128.8 499C171.7 493.3 214.3 497.7 257.2 501.3C300 505 343 508 385.8 513.8C428.7 519.7 471.3 528.3 514.2 529.5C557 530.7 600 524.3 642.8 516C685.7 507.7 728.3 497.3 771.2 499.8C814 502.3 857 517.7 878.5 525.3L900 533L900 601L878.5 601C857 601 814 601 771.2 601C728.3 601 685.7 601 642.8 601C600 601 557 601 514.2 601C471.3 601 428.7 601 385.8 601C343 601 300 601 257.2 601C214.3 601 171.7 601 128.8 601C86 601 43 601 21.5 601L0 601Z" fill="#007aff"></path><path d="M0 571L21.5 571.3C43 571.7 86 572.3 128.8 568.3C171.7 564.3 214.3 555.7 257.2 550.5C300 545.3 343 543.7 385.8 544.8C428.7 546 471.3 550 514.2 552.3C557 554.7 600 555.3 642.8 555.7C685.7 556 728.3 556 771.2 557.7C814 559.3 857 562.7 878.5 564.3L900 566L900 601L878.5 601C857 601 814 601 771.2 601C728.3 601 685.7 601 642.8 601C600 601 557 601 514.2 601C471.3 601 428.7 601 385.8 601C343 601 300 601 257.2 601C214.3 601 171.7 601 128.8 601C86 601 43 601 21.5 601L0 601Z" fill="#0066ff"></path></svg>